<svg width="223" height="34" viewBox="0 0 223 34" fill="none" xmlns="http://www.w3.org/2000/svg">
<path d="M7.00568 0.318181L13.3338 20.2102H13.5767L19.9176 0.318181H26.054L17.0284 26.5H9.89489L0.856534 0.318181H7.00568ZM35.837 26.8835C33.8171 26.8835 32.0785 26.4744 30.6211 25.6562C29.1722 24.8295 28.0558 23.6619 27.2717 22.1534C26.4876 20.6364 26.0955 18.8423 26.0955 16.7713C26.0955 14.7514 26.4876 12.9787 27.2717 11.4531C28.0558 9.92756 29.1594 8.73864 30.5827 7.88636C32.0146 7.03409 33.6935 6.60795 35.6197 6.60795C36.9151 6.60795 38.1211 6.81676 39.2376 7.23438C40.3626 7.64347 41.3427 8.26136 42.1779 9.08807C43.0217 9.91477 43.6779 10.9545 44.1467 12.2074C44.6154 13.4517 44.8498 14.9091 44.8498 16.5795V18.0753H28.2688V14.7003H39.7234C39.7234 13.9162 39.5529 13.2216 39.212 12.6165C38.8711 12.0114 38.3981 11.5384 37.793 11.1974C37.1964 10.848 36.5018 10.6733 35.7092 10.6733C34.8825 10.6733 34.1495 10.8651 33.5103 11.2486C32.8796 11.6236 32.3853 12.1307 32.0273 12.7699C31.6694 13.4006 31.4862 14.1037 31.4776 14.8793V18.0881C31.4776 19.0597 31.6566 19.8991 32.0146 20.6065C32.381 21.3139 32.8967 21.8594 33.5614 22.2429C34.2262 22.6264 35.0146 22.8182 35.9265 22.8182C36.5316 22.8182 37.0856 22.733 37.5884 22.5625C38.0913 22.392 38.5217 22.1364 38.8796 21.7955C39.2376 21.4545 39.5103 21.0369 39.6978 20.5426L44.7347 20.875C44.479 22.0852 43.9549 23.142 43.1623 24.0455C42.3782 24.9403 41.364 25.6392 40.1197 26.142C38.8839 26.6364 37.4563 26.8835 35.837 26.8835ZM58.8484 6.86364V10.9545H47.0231V6.86364H58.8484ZM49.7077 2.15909H55.1538V20.4659C55.1538 20.9687 55.2305 21.3608 55.3839 21.642C55.5373 21.9148 55.7504 22.1065 56.0231 22.2173C56.3043 22.3281 56.6282 22.3835 56.9947 22.3835C57.2504 22.3835 57.506 22.3622 57.7617 22.3196C58.0174 22.2685 58.2134 22.2301 58.3498 22.2045L59.2063 26.2571C58.9336 26.3423 58.5501 26.4403 58.0558 26.5511C57.5614 26.6705 56.9606 26.7429 56.2532 26.7685C54.9407 26.8196 53.7901 26.6449 52.8015 26.2443C51.8214 25.8437 51.0586 25.2216 50.5131 24.3778C49.9677 23.5341 49.6992 22.4687 49.7077 21.1818V2.15909Z" fill="#2B6CB0"/>
<path d="M62.4982 26.5V0.318181H80.1403V4.8821H68.0337V11.1207H79.2326V15.6847H68.0337V21.9361H80.1914V26.5H62.4982ZM88.9901 6.86364L92.5952 13.7287L96.2898 6.86364H101.876L96.1875 16.6818L102.03 26.5H96.4688L92.5952 19.7116L88.7855 26.5H83.1605L88.9901 16.6818L83.3651 6.86364H88.9901ZM105.111 33.8636V6.86364H110.48V10.1619H110.723C110.962 9.63352 111.307 9.09659 111.759 8.55114C112.219 7.99716 112.815 7.53693 113.548 7.17045C114.29 6.79545 115.21 6.60795 116.31 6.60795C117.741 6.60795 119.063 6.98295 120.273 7.73295C121.483 8.47443 122.45 9.59517 123.175 11.0952C123.899 12.5866 124.261 14.4574 124.261 16.7074C124.261 18.8977 123.908 20.7472 123.2 22.2557C122.501 23.7557 121.547 24.8935 120.337 25.669C119.135 26.4361 117.788 26.8196 116.297 26.8196C115.24 26.8196 114.341 26.6449 113.599 26.2955C112.866 25.946 112.266 25.5071 111.797 24.9787C111.328 24.4418 110.97 23.9006 110.723 23.3551H110.557V33.8636H105.111ZM110.442 16.6818C110.442 17.8494 110.604 18.8679 110.928 19.7372C111.251 20.6065 111.72 21.2841 112.334 21.7699C112.947 22.2472 113.693 22.4858 114.571 22.4858C115.457 22.4858 116.207 22.2429 116.821 21.7571C117.435 21.2628 117.899 20.581 118.214 19.7116C118.538 18.8338 118.7 17.8239 118.7 16.6818C118.7 15.5483 118.543 14.5511 118.227 13.6903C117.912 12.8295 117.447 12.1562 116.834 11.6705C116.22 11.1847 115.466 10.9418 114.571 10.9418C113.685 10.9418 112.935 11.1761 112.321 11.6449C111.716 12.1136 111.251 12.7784 110.928 13.6392C110.604 14.5 110.442 15.5142 110.442 16.6818ZM127.892 26.5V6.86364H133.172V10.2898H133.376C133.734 9.07102 134.335 8.15057 135.179 7.52841C136.023 6.89773 136.994 6.58239 138.094 6.58239C138.366 6.58239 138.661 6.59943 138.976 6.63352C139.291 6.66761 139.568 6.71449 139.807 6.77415V11.6065C139.551 11.5298 139.197 11.4616 138.746 11.402C138.294 11.3423 137.881 11.3125 137.506 11.3125C136.705 11.3125 135.989 11.4872 135.358 11.8366C134.736 12.1776 134.241 12.6548 133.875 13.2685C133.517 13.8821 133.338 14.5895 133.338 15.3906V26.5H127.892ZM150.657 26.8835C148.637 26.8835 146.899 26.4744 145.441 25.6562C143.993 24.8295 142.876 23.6619 142.092 22.1534C141.308 20.6364 140.916 18.8423 140.916 16.7713C140.916 14.7514 141.308 12.9787 142.092 11.4531C142.876 9.92756 143.98 8.73864 145.403 7.88636C146.835 7.03409 148.514 6.60795 150.44 6.60795C151.735 6.60795 152.941 6.81676 154.058 7.23438C155.183 7.64347 156.163 8.26136 156.998 9.08807C157.842 9.91477 158.498 10.9545 158.967 12.2074C159.436 13.4517 159.67 14.9091 159.67 16.5795V18.0753H143.089V14.7003H154.544C154.544 13.9162 154.373 13.2216 154.032 12.6165C153.691 12.0114 153.218 11.5384 152.613 11.1974C152.017 10.848 151.322 10.6733 150.529 10.6733C149.703 10.6733 148.97 10.8651 148.331 11.2486C147.7 11.6236 147.206 12.1307 146.848 12.7699C146.49 13.4006 146.306 14.1037 146.298 14.8793V18.0881C146.298 19.0597 146.477 19.8991 146.835 20.6065C147.201 21.3139 147.717 21.8594 148.382 22.2429C149.047 22.6264 149.835 22.8182 150.747 22.8182C151.352 22.8182 151.906 22.733 152.409 22.5625C152.912 22.392 153.342 22.1364 153.7 21.7955C154.058 21.4545 154.331 21.0369 154.518 20.5426L159.555 20.875C159.299 22.0852 158.775 23.142 157.983 24.0455C157.199 24.9403 156.184 25.6392 154.94 26.142C153.704 26.6364 152.277 26.8835 150.657 26.8835ZM179.562 12.4631L174.576 12.7699C174.491 12.3437 174.308 11.9602 174.027 11.6193C173.745 11.2699 173.375 10.9929 172.914 10.7884C172.463 10.5753 171.922 10.4688 171.291 10.4688C170.447 10.4688 169.735 10.6477 169.156 11.0057C168.576 11.3551 168.287 11.8239 168.287 12.4119C168.287 12.8807 168.474 13.277 168.849 13.6009C169.224 13.9247 169.868 14.1847 170.779 14.3807L174.333 15.0966C176.243 15.4886 177.666 16.1193 178.603 16.9886C179.541 17.858 180.01 19 180.01 20.4148C180.01 21.7017 179.63 22.831 178.872 23.8026C178.122 24.7741 177.091 25.5327 175.778 26.0781C174.474 26.6151 172.97 26.8835 171.265 26.8835C168.666 26.8835 166.595 26.3423 165.052 25.2599C163.518 24.169 162.619 22.6861 162.355 20.8111L167.711 20.5298C167.873 21.3224 168.265 21.9276 168.887 22.3452C169.51 22.7543 170.306 22.9588 171.278 22.9588C172.233 22.9588 173 22.7756 173.579 22.4091C174.167 22.0341 174.466 21.5526 174.474 20.9645C174.466 20.4702 174.257 20.0653 173.848 19.75C173.439 19.4261 172.808 19.179 171.956 19.0085L168.555 18.331C166.637 17.9474 165.21 17.2827 164.272 16.3366C163.343 15.3906 162.879 14.1847 162.879 12.7188C162.879 11.4574 163.22 10.3707 163.902 9.45881C164.592 8.54688 165.559 7.84375 166.804 7.34943C168.056 6.85511 169.522 6.60795 171.201 6.60795C173.681 6.60795 175.633 7.1321 177.056 8.1804C178.488 9.22869 179.324 10.6562 179.562 12.4631ZM199.777 12.4631L194.791 12.7699C194.706 12.3437 194.523 11.9602 194.241 11.6193C193.96 11.2699 193.589 10.9929 193.129 10.7884C192.678 10.5753 192.136 10.4688 191.506 10.4688C190.662 10.4688 189.95 10.6477 189.371 11.0057C188.791 11.3551 188.501 11.8239 188.501 12.4119C188.501 12.8807 188.689 13.277 189.064 13.6009C189.439 13.9247 190.082 14.1847 190.994 14.3807L194.548 15.0966C196.457 15.4886 197.881 16.1193 198.818 16.9886C199.756 17.858 200.224 19 200.224 20.4148C200.224 21.7017 199.845 22.831 199.087 23.8026C198.337 24.7741 197.305 25.5327 195.993 26.0781C194.689 26.6151 193.185 26.8835 191.48 26.8835C188.881 26.8835 186.81 26.3423 185.267 25.2599C183.733 24.169 182.834 22.6861 182.57 20.8111L187.926 20.5298C188.088 21.3224 188.48 21.9276 189.102 22.3452C189.724 22.7543 190.521 22.9588 191.493 22.9588C192.447 22.9588 193.214 22.7756 193.794 22.4091C194.382 22.0341 194.68 21.5526 194.689 20.9645C194.68 20.4702 194.472 20.0653 194.062 19.75C193.653 19.4261 193.023 19.179 192.17 19.0085L188.77 18.331C186.852 17.9474 185.425 17.2827 184.487 16.3366C183.558 15.3906 183.094 14.1847 183.094 12.7188C183.094 11.4574 183.435 10.3707 184.116 9.45881C184.807 8.54688 185.774 7.84375 187.018 7.34943C188.271 6.85511 189.737 6.60795 191.416 6.60795C193.896 6.60795 195.848 7.1321 197.271 8.1804C198.703 9.22869 199.538 10.6562 199.777 12.4631Z" fill="black"/>
<path d="M211.426 25.081V6.97869H216.003V25.081H211.426ZM204.664 18.3182V13.7415H222.766V18.3182H204.664Z" fill="black"/>
<path d="M211.426 25.081V6.97869H216.003V25.081H211.426ZM204.664 18.3182V13.7415H222.766V18.3182H204.664Z" fill="#2B6CB0"/>
</svg>
