<svg width="24" height="25" viewBox="0 0 24 25" fill="none" xmlns="http://www.w3.org/2000/svg">
<g id="CkCalendar" clip-path="url(#clip0_2186_399)">
<path id="Vector" d="M18.6667 9.92857H5.33333V12.5952H18.6667V9.92857ZM21.3333 2.30953H20.0001V0.5H17.3333V2.30953H6.66667V0.5H3.99999V2.30953H2.66667C1.18667 2.30953 0.0133333 3.50953 0.0133333 4.97619L0 21.9286C0 23.3953 1.18667 24.5 2.66667 24.5H21.3333C22.8 24.5 24 23.3953 24 21.9286V4.97619C24 3.50953 22.8 2.30953 21.3333 2.30953ZM21.3333 21.9286H2.66667V7.2619H21.3333V21.9286ZM14.6667 15.2619H5.33333V17.9286H14.6667V15.2619Z" fill="#2B6CB0"/>
</g>
<defs>
<clipPath id="clip0_2186_399">
<rect width="24" height="24" fill="white" transform="translate(0 0.5)"/>
</clipPath>
</defs>
</svg>
