<svg width="24" height="25" viewBox="0 0 24 25" fill="none" xmlns="http://www.w3.org/2000/svg">
<g id="CkCheckCircle" clip-path="url(#clip0_2186_640)">
<path id="Vector" d="M12 0.5C9.62663 0.5 7.30655 1.20379 5.33316 2.52236C3.35977 3.84094 1.8217 5.71509 0.913451 7.9078C0.00519943 10.1005 -0.232441 12.5133 0.230582 14.8411C0.693605 17.1689 1.83649 19.3071 3.51472 20.9853C5.19295 22.6635 7.33115 23.8064 9.65892 24.2694C11.9867 24.7324 14.3995 24.4948 16.5922 23.5866C18.7849 22.6783 20.6591 21.1402 21.9776 19.1668C23.2962 17.1935 24 14.8734 24 12.5C23.9963 9.31854 22.7308 6.26844 20.4812 4.01881C18.2316 1.76918 15.1815 0.503705 12 0.5V0.5ZM18.927 8.7L12.082 17.989C12.0012 18.0962 11.8998 18.1863 11.7838 18.2539C11.6678 18.3215 11.5395 18.3654 11.4064 18.3829C11.2733 18.4004 11.138 18.3912 11.0085 18.3558C10.879 18.3205 10.7578 18.2597 10.652 18.177L5.76401 14.269C5.66144 14.1869 5.57605 14.0855 5.5127 13.9704C5.44936 13.8553 5.4093 13.7289 5.39481 13.5983C5.36556 13.3346 5.44224 13.0701 5.60801 12.863C5.77377 12.6559 6.01502 12.5231 6.2787 12.4938C6.54237 12.4646 6.80687 12.5412 7.01401 12.707L11.09 15.968L17.317 7.517C17.392 7.40451 17.489 7.30838 17.6021 7.23443C17.7153 7.16048 17.8423 7.11025 17.9754 7.08676C18.1085 7.06327 18.245 7.06702 18.3767 7.09777C18.5083 7.12853 18.6323 7.18565 18.7413 7.2657C18.8502 7.34574 18.9418 7.44705 19.0105 7.56348C19.0792 7.67992 19.1235 7.80907 19.1409 7.94313C19.1582 8.07719 19.1482 8.21339 19.1115 8.34347C19.0747 8.47356 19.012 8.59485 18.927 8.7Z" fill="white"/>
</g>
<defs>
<clipPath id="clip0_2186_640">
<rect width="24" height="24" fill="white" transform="translate(0 0.5)"/>
</clipPath>
</defs>
</svg>
