<svg width="32" height="33" viewBox="0 0 32 33" fill="none" xmlns="http://www.w3.org/2000/svg">
<g id="BiMessageRoundedDetail">
<path id="Vector" d="M16.0003 3.16667C8.64833 3.16667 2.66699 7.95201 2.66699 13.8333C2.66699 17.7107 5.19766 21.1867 9.33366 23.0787V29.8333L16.4537 24.4933C23.5963 24.3027 29.3337 19.5933 29.3337 13.8333C29.3337 7.95201 23.3523 3.16667 16.0003 3.16667ZM16.0003 21.8333H15.5563L12.0003 24.5V21.2773L11.1457 20.948C7.56033 19.568 5.33366 16.8413 5.33366 13.8333C5.33366 9.42134 10.119 5.83334 16.0003 5.83334C21.8817 5.83334 26.667 9.42134 26.667 13.8333C26.667 18.2453 21.8817 21.8333 16.0003 21.8333Z" fill="white"/>
<path id="Vector_2" d="M9.33301 9.83333H22.6663V12.5H9.33301V9.83333ZM9.33301 15.1667H18.6663V17.8333H9.33301V15.1667Z" fill="white"/>
</g>
</svg>
