<svg width="24" height="25" viewBox="0 0 24 25" fill="none" xmlns="http://www.w3.org/2000/svg">
<g id="CkPhone">
<path id="Vector" d="M7.20731 5.51272C7.1105 5.49336 6.99432 5.49335 6.91687 5.53208C5.87128 5.9387 5.21294 7.42964 5.05804 8.45587C4.57397 11.7863 7.20731 14.6713 9.62766 16.5689C11.7769 18.2534 15.9012 21.0223 18.3409 18.3503C18.6507 18.0211 19.0186 17.537 18.9993 17.053C18.9412 16.2397 18.186 15.6588 17.6051 15.2135C17.1598 14.8843 16.2304 13.9743 15.6495 13.9936C15.1267 14.013 14.7975 14.5551 14.4684 14.8843L13.8875 15.4652C13.7907 15.562 12.5514 14.7488 12.4159 14.652C11.9125 14.3228 11.4284 13.9549 11.0024 13.5483C10.5764 13.1417 10.1892 12.6963 9.86002 12.2316C9.7632 12.0961 8.96933 10.9149 9.04678 10.8181C9.04678 10.8181 9.72448 10.0823 9.91811 9.7919C10.3247 9.17229 10.6345 8.68822 10.1698 7.95243C9.99556 7.68135 9.78257 7.46836 9.55021 7.23601C9.14359 6.84875 8.73698 6.44213 8.27227 6.11296C8.02055 5.91933 7.59457 5.57081 7.20731 5.51272Z" fill="black"/>
</g>
</svg>
