<svg width="24" height="25" viewBox="0 0 24 25" fill="none" xmlns="http://www.w3.org/2000/svg">
<g id="CkTime" clip-path="url(#clip0_2186_451)">
<g id="Vector">
<path d="M12 0.5C9.62663 0.5 7.30655 1.20379 5.33316 2.52236C3.35977 3.84094 1.8217 5.71509 0.913451 7.9078C0.00519943 10.1005 -0.232441 12.5133 0.230582 14.8411C0.693605 17.1689 1.83649 19.3071 3.51472 20.9853C5.19295 22.6635 7.33115 23.8064 9.65892 24.2694C11.9867 24.7324 14.3995 24.4948 16.5922 23.5866C18.7849 22.6783 20.6591 21.1402 21.9776 19.1668C23.2962 17.1935 24 14.8734 24 12.5C23.9963 9.31854 22.7308 6.26845 20.4812 4.01881C18.2316 1.76918 15.1815 0.503705 12 0.5ZM12 22.5C10.0222 22.5 8.08879 21.9135 6.4443 20.8147C4.79981 19.7159 3.51809 18.1541 2.76121 16.3268C2.00433 14.4996 1.8063 12.4889 2.19215 10.5491C2.578 8.60929 3.53041 6.82746 4.92894 5.42893C6.32746 4.03041 8.10929 3.078 10.0491 2.69215C11.9889 2.3063 13.9996 2.50433 15.8268 3.2612C17.6541 4.01808 19.2159 5.29981 20.3147 6.9443C21.4135 8.58879 22 10.5222 22 12.5C21.9971 15.1513 20.9426 17.6931 19.0679 19.5679C17.1931 21.4426 14.6513 22.4971 12 22.5Z" fill="black"/>
<path d="M17.134 16.31L12.5 12.061V7C12.5 6.73478 12.3946 6.48043 12.2071 6.29289C12.0196 6.10536 11.7652 6 11.5 6C11.2348 6 10.9804 6.10536 10.7929 6.29289C10.6054 6.48043 10.5 6.73478 10.5 7V12.5C10.4999 12.6388 10.5286 12.776 10.5844 12.9031C10.6401 13.0301 10.7218 13.1442 10.824 13.238L15.783 17.783C15.9796 17.9598 16.2378 18.0525 16.502 18.0411C16.7662 18.0297 17.0154 17.9151 17.196 17.722C17.3749 17.5265 17.4688 17.2679 17.4572 17.0032C17.4456 16.7384 17.3293 16.4891 17.134 16.31Z" fill="black"/>
</g>
</g>
<defs>
<clipPath id="clip0_2186_451">
<rect width="24" height="24" fill="white" transform="translate(0 0.5)"/>
</clipPath>
</defs>
</svg>
